<svg xmlns="http://www.w3.org/2000/svg" class="h-10 w-auto" viewBox="0 0 265 85" width="200" height="200" style="display: block; margin: 0 auto;">
    <g transform="scale(0.56)">
        <g transform="translate(0.000000,85.000000) scale(0.100000,-0.100000)" fill="#2196F3" stroke="none">
            <path d="M1285 736 c-16 -7 -39 -23 -50 -36 -19 -21 -20 -36 -20 -221 l0 -199 32 -32 c28 -28 40 -32 95 -36 108 -6 152 38 146 147 l-3 56 -40 0 -40 0 -5 -60 -5 -60 -40 0 -40 0 -3 182 c-2 177 -2 182 19 194 16 8 28 8 45 0 20 -9 24 -18 24 -56 l0 -45 45 0 45 0 0 45 c0 26 -7 59 -15 74 -27 54 -122 77 -190 47z"/>
            <path d="M105 713 c3 -16 18 -151 35 -302 16 -151 31 -275 32 -275 2 -1 31 2 64 7 l62 8 6 42 c3 23 11 94 18 157 7 63 14 106 15 95 2 -11 9 -78 17 -148 7 -70 15 -130 18 -132 2 -3 31 -1 63 3 l59 7 33 270 c17 149 32 276 33 283 0 7 -14 12 -39 12 -47 0 -44 12 -67 -220 -9 -96 -20 -178 -24 -183 -3 -4 -14 77 -24 180 -9 104 -19 196 -22 206 -4 13 -16 17 -50 17 -24 0 -44 -1 -44 -2 0 -2 -9 -95 -20 -208 -11 -113 -20 -211 -20 -219 0 -8 -2 -12 -4 -10 -2 2 -14 102 -27 222 l-23 217 -48 0 c-46 0 -47 -1 -43 -27z"/>
            <path d="M617 463 c-25 -152 -45 -278 -43 -280 2 -2 22 -1 44 3 40 6 41 7 49 58 l8 51 56 3 c61 3 69 -4 69 -70 0 -26 3 -28 44 -28 25 0 47 4 51 9 3 6 -16 127 -41 270 l-47 261 -71 0 -72 0 -47 -277z m156 -85 c-7 -14 -83 -9 -83 5 0 18 29 198 37 227 4 18 13 -12 28 -100 12 -69 20 -128 18 -132z"/>
            <path d="M880 705 l0 -35 50 0 50 0 0 -230 0 -230 50 0 50 0 0 230 0 230 50 0 50 0 0 35 0 35 -150 0 -150 0 0 -35z"/>
            <path d="M1550 475 l0 -265 50 0 50 0 0 115 0 115 50 0 49 0 3 -117 3 -118 48 -3 47 -3 0 270 0 271 -50 0 -50 0 0 -115 0 -115 -50 0 -50 0 0 115 0 115 -50 0 -50 0 0 -265z"/>
            <path d="M1920 465 l0 -275 45 0 45 0 0 105 0 105 53 0 c66 0 97 16 119 60 22 43 24 156 4 205 -24 57 -66 75 -173 75 l-93 0 0 -275z m175 105 l0 -85 -42 -3 -43 -3 0 91 0 91 43 -3 42 -3 0 -85z"/>
            <path d="M2215 723 c3 -10 31 -97 61 -194 50 -164 54 -182 54 -277 l0 -102 29 0 c16 0 36 -3 45 -6 14 -5 16 7 16 91 0 90 4 111 60 294 33 109 60 200 60 204 0 4 -20 7 -44 7 l-44 0 -22 -82 c-39 -148 -48 -174 -54 -158 -3 8 -17 58 -31 110 -14 52 -28 103 -31 113 -4 13 -16 17 -56 17 -44 0 -49 -2 -43 -17z"/>
        </g>
    </g>
</svg>
